<svg width="966" height="385" viewBox="0 0 966 385" fill="none" xmlns="http://www.w3.org/2000/svg">
<g opacity="0.4">
<path opacity="0.3" d="M965 156.055C965 177.151 951.767 197.418 927.436 216.004C903.12 234.579 867.872 251.349 824.225 265.451C736.943 293.652 616.302 311.111 483 311.111C349.698 311.111 229.057 293.652 141.775 265.451C98.1283 251.349 62.8796 234.579 38.5636 216.004C14.2326 197.418 1 177.151 1 156.055C1 134.96 14.2326 114.692 38.5636 96.1062C62.8796 77.5316 98.1283 60.7611 141.775 46.6591C229.057 18.4587 349.698 1 483 1C616.302 1 736.943 18.4587 824.225 46.6591C867.872 60.7611 903.12 77.5316 927.436 96.1062C951.767 114.692 965 134.96 965 156.055Z" stroke="#C6005B" stroke-width="2"/>
<path opacity="0.3" d="M889.668 240.906C889.668 258.643 878.543 275.711 858.024 291.386C837.52 307.05 807.787 321.199 770.956 333.1C697.307 356.898 595.498 371.634 482.998 371.634C370.498 371.634 268.689 356.898 195.039 333.1C158.209 321.199 128.476 307.05 107.972 291.386C87.4528 275.711 76.3281 258.643 76.3281 240.906C76.3281 223.17 87.4528 206.102 107.972 190.427C128.476 174.763 158.209 160.614 195.039 148.713C268.689 124.915 370.498 110.179 482.998 110.179C595.498 110.179 697.307 124.915 770.956 148.713C807.787 160.614 837.52 174.763 858.024 190.427C878.543 206.102 889.668 223.17 889.668 240.906Z" stroke="#C6005B" stroke-width="2"/>
<path opacity="0.3" d="M709 311.5C709 321.198 702.93 330.607 691.553 339.315C680.192 348.013 663.688 355.889 643.205 362.521C602.25 375.782 545.609 384 483 384C420.391 384 363.75 375.782 322.795 362.521C302.312 355.889 285.808 348.013 274.447 339.315C263.07 330.607 257 321.198 257 311.5C257 301.802 263.07 292.393 274.447 283.685C285.808 274.987 302.312 267.111 322.795 260.479C363.75 247.218 420.391 239 483 239C545.609 239 602.25 247.218 643.205 260.479C663.688 267.111 680.192 274.987 691.553 283.685C702.93 292.393 709 301.802 709 311.5Z" stroke="#C6005B" stroke-width="2"/>
</g>
</svg>
