<svg xmlns="http://www.w3.org/2000/svg" width="544" height="581" viewBox="0 0 544 581" fill="none">
  <g filter="url(#filter0_b_1557_7851)">
    <path d="M0 20C0 8.95431 8.95431 0 20 0L524 0C535.046 0 544 8.9543 544 20V561C544 572.046 535.046 581 524 581H20C8.95429 581 0 572.046 0 561L0 20Z" fill="white" fill-opacity="0.35"/>
    <path d="M2.5 20C2.5 10.335 10.335 2.5 20 2.5L524 2.5C533.665 2.5 541.5 10.335 541.5 20V561C541.5 570.665 533.665 578.5 524 578.5H20C10.335 578.5 2.5 570.665 2.5 561L2.5 20Z" stroke="url(#paint0_linear_1557_7851)" stroke-width="5"/>
  </g>
  <defs>
    <filter id="filter0_b_1557_7851" x="-18" y="-18" width="580" height="617" filterUnits="userSpaceOnUse" color-interpolation-filters="sRGB">
      <feFlood flood-opacity="0" result="BackgroundImageFix"/>
      <feGaussianBlur in="BackgroundImageFix" stdDeviation="9"/>
      <feComposite in2="SourceAlpha" operator="in" result="effect1_backgroundBlur_1557_7851"/>
      <feBlend mode="normal" in="SourceGraphic" in2="effect1_backgroundBlur_1557_7851" result="shape"/>
    </filter>
    <linearGradient id="paint0_linear_1557_7851" x1="0" y1="0" x2="620.31" y2="482.995" gradientUnits="userSpaceOnUse">
      <stop stop-color="#7963A4"/>
      <stop offset="0.165" stop-color="#D5BFFF"/>
      <stop offset="0.49" stop-color="#F8F8F8"/>
      <stop offset="0.83" stop-color="#CBB9EF"/>
      <stop offset="1" stop-color="#7963A4"/>
    </linearGradient>
  </defs>
</svg>