<svg width="152" height="152" viewBox="0 0 152 152" fill="none" xmlns="http://www.w3.org/2000/svg">
<path d="M76 0L76.0147 75.9252L105.084 5.78513L76.0423 75.9369L129.74 22.2599L76.0631 75.9577L146.215 46.9159L76.0748 75.9853L152 76L76.0748 76.0147L146.215 105.084L76.0631 76.0423L129.74 129.74L76.0423 76.0631L105.084 146.215L76.0147 76.0748L76 152L75.9853 76.0748L46.9159 146.215L75.9577 76.0631L22.2599 129.74L75.9369 76.0423L5.78513 105.084L75.9252 76.0147L0 76L75.9252 75.9853L5.78513 46.9159L75.9369 75.9577L22.2599 22.2599L75.9577 75.9369L46.9159 5.78513L75.9853 75.9252L76 0Z" fill="#F0C3D2" stroke="black" stroke-width="4"/>
</svg>
